<?xml version="1.0" encoding="utf-8"?>
<svg xmlns="http://www.w3.org/2000/svg" viewBox="0 0 50 50" width="100" height="100">
  <path d="M43.125 11C41.394531 11 39.621094 11.378906 37.875 12.15625L9.625 24.78125C9.542969 24.820313 9.464844 24.84375 9.40625 24.84375C9.171875 24.84375 8.765625 24.519531 8.40625 24.25C7.054688 23.253906 5.085938 21.824219 4.46875 21.34375C4.003906 20.988281 3.359375 20.78125 2.65625 20.78125C1.617188 20.78125 0.753906 21.195313 0.3125 21.875C-0.046875 22.429688 -0.109375 23.113281 0.1875 23.78125L3.75 31.6875C4.179688 32.652344 5.292969 33.8125 8.15625 33.8125C11.414063 33.8125 16.46875 32.3125 22.78125 29.5L24.09375 28.90625L21.8125 41.125C21.539063 42.222656 21.578125 42.96875 21.96875 43.46875C22.21875 43.789063 22.59375 43.96875 23 43.96875C23.203125 43.96875 23.414063 43.9375 23.625 43.84375L25.1875 43.15625C26.363281 42.632813 27.621094 41.011719 28.1875 39.78125L35.625 23.6875C49.855469 17.023438 50.496094 15.613281 49.875 14.21875C49.160156 12.621094 46.621094 11 43.125 11 Z M 13.875 12.9375C13.3125 12.9375 12.503906 13 11.875 13.28125L10.3125 13.96875C9.796875 14.199219 9.457031 14.640625 9.4375 15.15625C9.40625 16.121094 10.386719 16.734375 11.0625 17.09375L15.65625 19.90625L24.71875 15.84375L16.34375 13.28125C15.585938 13.050781 14.726563 12.9375 13.875 12.9375Z" fill="#FFFFFF" />
</svg>